<svg width="115" height="100" viewBox="0 0 115 100" fill="none" xmlns="http://www.w3.org/2000/svg">
<rect width="115" height="100" fill="black"/>
<path d="M19.5156 53.5034H16.1062V25.4473H9V25.0407H26.6629V25.4473H19.5156V53.5034Z" fill="white"/>
<path d="M29.4641 53.5034H28.9301L32.5038 25.0407H33.8593L42.4854 51.3484L51.0704 25.0407H52.4259L55.9996 53.5034H52.5902L49.756 30.7332L42.3211 53.5034H39.7333L32.2163 31.0178L29.4641 53.5034Z" fill="white"/>
<path d="M65.0342 25.0813C66.2391 25.0271 67.4166 25 68.5668 25C69.7443 25 70.9766 25.122 72.2636 25.366C73.5781 25.6099 74.8652 26.0707 76.1248 26.7484C77.4119 27.399 78.4936 28.2529 79.3699 29.3101C80.2736 30.3402 80.9993 31.7091 81.5469 33.4169C82.0946 35.1246 82.3685 37.1983 82.3685 39.638C82.3685 42.0777 81.9577 44.2734 81.1362 46.2251C80.342 48.1497 79.2467 49.6271 77.8501 50.6572C75.139 52.6631 71.8666 53.6661 68.0328 53.6661C66.6909 53.6661 65.2806 53.6119 63.8019 53.5034H61.7481V25.0813H65.0342ZM65.1574 53.1782C65.7325 53.2324 66.4582 53.2595 67.3345 53.2595C68.2108 53.2595 68.868 53.2459 69.3061 53.2188C69.7443 53.1917 70.3467 53.0833 71.1135 52.8935C71.8803 52.6767 72.5923 52.392 73.2495 52.0396C73.9067 51.6872 74.5913 51.1722 75.3033 50.4945C76.0427 49.7897 76.6725 48.9629 77.1928 48.0142C78.3704 45.7914 78.9591 42.8909 78.9591 39.3127C78.9591 36.7646 78.6442 34.5689 78.0144 32.7256C77.3845 30.8552 76.6588 29.4727 75.8373 28.5782C75.0432 27.6836 74.071 26.9788 72.9209 26.4638C71.7707 25.9217 70.8534 25.6099 70.1687 25.5286C69.4841 25.4473 68.69 25.4066 67.7863 25.4066C66.8826 25.4066 66.0063 25.4473 65.1574 25.5286V53.1782Z" fill="white"/>
<path d="M86.8994 25.366C90.076 25.1491 92.8829 25.0407 95.3201 25.0407C102.084 25.0407 105.466 27.277 105.466 31.7497C105.466 33.4304 104.973 34.8807 103.987 36.1005C103.001 37.2932 101.427 38.1064 99.2634 38.5402C101.345 38.7841 102.988 39.4076 104.193 40.4106C105.398 41.4135 106 43.162 106 45.6558C106 50.8876 102.618 53.5034 95.8541 53.5034H86.8994V25.366ZM90.3088 53.0968H95.8541C98.2913 53.0968 100.017 52.4734 101.03 51.2264C102.07 49.9524 102.591 48.0142 102.591 45.4119C102.591 42.8096 102.07 41.0747 101.03 40.2073C99.9891 39.3398 98.4419 38.879 96.3881 38.8248H90.3088V53.0968ZM95.3201 25.4473C93.7318 25.4473 92.0614 25.5421 90.3088 25.7319V38.4182H96.3881C100.249 38.2555 102.18 36.0598 102.18 31.8311C102.18 29.7709 101.605 28.1987 100.455 27.1144C99.3045 26.003 97.593 25.4473 95.3201 25.4473Z" fill="white"/>
<path d="M48.7047 55.7558C48.7047 53.744 48.4381 52.3258 47.9051 51.5013C47.372 50.6768 46.3558 50.2645 44.8565 50.2645C42.8574 50.2645 41.0749 51.089 39.509 52.738C37.9764 54.3871 37.2101 55.8712 37.2101 57.1904V74.8021H33.7117V55.7558C33.7117 53.744 33.4452 52.3258 32.9121 51.5013C32.379 50.6768 31.2462 50.2645 29.5137 50.2645C27.7812 50.2645 26.132 51.056 24.5661 52.6391C23.0334 54.2222 22.2005 55.6898 22.0672 57.042V74.8021H18.5689V50.0666H22.0672V55.6568C22.6003 54.2387 23.5832 52.9194 25.0158 51.6992C26.4485 50.4789 28.0477 49.8687 29.8136 49.8687C31.5794 49.8687 32.9788 50.0336 34.0116 50.3634C35.0778 50.6603 35.8274 51.1385 36.2605 51.7981C36.6937 52.4577 36.9602 53.0349 37.0602 53.5296C37.1601 54.0243 37.2101 54.7169 37.2101 55.6074C37.7432 54.1892 38.7094 52.8865 40.1087 51.6992C41.5081 50.4789 43.0074 49.8687 44.6066 49.8687C46.2059 49.8687 47.4886 50.0006 48.4548 50.2645C49.421 50.5283 50.1373 50.8252 50.6038 51.155C51.1036 51.4848 51.47 51.963 51.7033 52.5896C51.9698 53.2163 52.1197 53.7275 52.1531 54.1232C52.1864 54.519 52.203 55.0797 52.203 55.8052V71.2897C52.203 72.2461 52.3863 72.9882 52.7528 73.5159C53.1526 74.0106 53.5524 74.2744 53.9522 74.3074L54.502 74.4064H56.0512V74.8021H53.0027C51.6366 74.8021 50.5871 74.5053 49.8541 73.9116C49.1545 73.318 48.788 72.7243 48.7547 72.1307L48.7047 71.2897V55.7558Z" fill="#D3F9FF"/>
<path d="M78.2045 74.8021C75.9389 74.8021 74.3896 74.3734 73.5566 73.5159C72.7903 72.7903 72.4072 72.1637 72.4072 71.636V70.5971C70.7746 73.5324 68.1592 75 64.5609 75C60.3629 75 57.9806 73.1201 57.4142 69.3603C57.3476 68.9645 57.3143 68.5688 57.3143 68.173C57.3143 67.7443 57.3809 67.2825 57.5142 66.7878C57.6475 66.2931 58.0306 65.7489 58.6637 65.1553C59.9297 63.968 62.7118 63.2424 67.0097 62.9785C68.0759 62.8796 69.0588 62.8301 69.9583 62.8301C70.8579 62.8301 71.6742 62.8631 72.4072 62.9291V54.7169C72.3406 54.6839 72.3406 54.5355 72.4072 54.2716C72.4738 53.9748 72.4072 53.612 72.2073 53.1833C72.0407 52.7216 71.8075 52.2763 71.5076 51.8476C71.2078 51.4188 70.6747 51.056 69.9084 50.7592C69.1421 50.4294 68.1425 50.2645 66.9098 50.2645C65.677 50.2645 64.2277 50.4954 62.5618 50.9571C60.9293 51.3858 59.7298 51.8146 58.9635 52.2433L58.7636 51.897C61.7289 50.5448 64.7441 49.8687 67.8094 49.8687C71.2411 49.8687 73.5067 50.4789 74.6061 51.6992C75.4724 52.6556 75.9055 53.6615 75.9055 54.7169V71.2897C75.9055 72.2461 76.0888 72.9882 76.4553 73.5159C76.8551 74.0106 77.2549 74.2744 77.6547 74.3074L78.2045 74.4064H79.7537V74.8021H78.2045ZM65.3605 74.6042C67.1263 74.6042 68.7089 74.0106 70.1083 72.8233C71.5409 71.603 72.3072 70.4322 72.4072 69.3108V63.3248C71.5076 63.2589 70.5914 63.2259 69.6585 63.2259C68.7589 63.2259 67.8593 63.2754 66.9598 63.3743C64.4276 63.6711 62.7784 64.2318 62.0121 65.0563C61.2458 65.8808 60.8626 67.0187 60.8626 68.4698C60.8626 68.7337 60.8793 69.0305 60.9126 69.3603C61.2125 72.8563 62.6951 74.6042 65.3605 74.6042Z" fill="#D3F9FF"/>
<path d="M83.2298 74.8021V74.4064C83.9295 74.4064 84.6292 74.1425 85.3288 73.6148C86.0618 73.0871 86.6116 72.5594 86.9781 72.0317L93.2251 62.9291L84.3293 50.0666H87.9776L95.624 61.0986L103.02 50.0666H103.52L95.8239 61.4449L105.12 74.8021H101.471L93.425 63.2259L88.0276 71.2402C87.9609 71.3391 87.8776 71.4711 87.7777 71.636C87.6777 71.8009 87.4612 72.0812 87.128 72.477C86.7948 72.8727 86.445 73.219 86.0785 73.5159C85.079 74.3734 84.1294 74.8021 83.2298 74.8021Z" fill="#D3F9FF"/>
</svg>
